# xmcd
#
# Track frame offsets:
#	150
#	15266
#	31741
#	49550
#	64570
#	82292
#	100546
#	115038
#	129983
#	147952
#	161036
#
# Disc length: 2380 seconds
#
# Revision: 0
# Processed by: cddbd v1.5.2PL0 Copyright (c) Steve Scherf et al.
# Submitted via: audiograbber 1.83.01
#
DISCID=7e094a0b
DTITLE=The Swon Brothers - The Swon Brothers
DYEAR=2014
DGENRE=Country
TTITLE0=What I'm Thinking About
TTITLE1=Later On
TTITLE2=Chasing You Around
TTITLE3=Songs That Said It All
TTITLE4=Pray for You
TTITLE5=Breaking
TTITLE6=95
TTITLE7=Pretty Beautiful
TTITLE8=Colder
TTITLE9=Same Old Highway
TTITLE10=This Side of Heaven
EXTD=
EXTT0=
EXTT1=
EXTT2=
EXTT3=
EXTT4=
EXTT5=
EXTT6=
EXTT7=
EXTT8=
EXTT9=
EXTT10=
PLAYORDER=
